<mxfile modified="2023-02-11T16:34:13.186Z" host="app.diagrams.net" agent="5.0 (Windows NT 10.0; Win64; x64) AppleWebKit/537.36 (KHTML, like Gecko) Chrome/108.0.0.0 Safari/537.36 OPR/94.0.0.0" etag="iPqd-it2pIPl3hax0WMC" version="20.8.20" type="github">
  <diagram id="Ht1M8jgEwFfnCIfOTk4-" name="Page-1">
    <mxGraphModel dx="1289" dy="835" grid="1" gridSize="10" guides="1" tooltips="1" connect="1" arrows="1" fold="1" page="1" pageScale="1" pageWidth="827" pageHeight="1169" math="0" shadow="0">
      <root>
        <mxCell id="0" />
        <mxCell id="1" parent="0" />
        <mxCell id="UEzPUAAOIrF-is8g5C7q-2" value="AWS Cloud" style="points=[[0,0],[0.25,0],[0.5,0],[0.75,0],[1,0],[1,0.25],[1,0.5],[1,0.75],[1,1],[0.75,1],[0.5,1],[0.25,1],[0,1],[0,0.75],[0,0.5],[0,0.25]];outlineConnect=0;gradientColor=none;html=1;whiteSpace=wrap;fontSize=12;fontStyle=0;shape=mxgraph.aws4.group;grIcon=mxgraph.aws4.group_aws_cloud_alt;strokeColor=#232F3E;fillColor=none;verticalAlign=top;align=left;spacingLeft=30;fontColor=#232F3E;dashed=0;container=1;pointerEvents=0;collapsible=0;recursiveResize=0;" parent="1" vertex="1">
          <mxGeometry x="50" y="150.5" width="890" height="649.5" as="geometry" />
        </mxCell>
        <mxCell id="lWacp6Ve3q58CCviGvI0-3" value="&amp;nbsp;Region : US-East (N. Virginia)" style="points=[[0,0],[0.25,0],[0.5,0],[0.75,0],[1,0],[1,0.25],[1,0.5],[1,0.75],[1,1],[0.75,1],[0.5,1],[0.25,1],[0,1],[0,0.75],[0,0.5],[0,0.25]];outlineConnect=0;gradientColor=none;html=1;whiteSpace=wrap;fontSize=12;fontStyle=0;container=1;pointerEvents=0;collapsible=0;recursiveResize=0;shape=mxgraph.aws4.group;grIcon=mxgraph.aws4.group_region;strokeColor=#147EBA;fillColor=none;verticalAlign=top;align=left;spacingLeft=30;fontColor=#147EBA;dashed=1;" vertex="1" parent="UEzPUAAOIrF-is8g5C7q-2">
          <mxGeometry x="30" y="46.5" width="830" height="590.5" as="geometry" />
        </mxCell>
        <mxCell id="lWacp6Ve3q58CCviGvI0-1" value="VPC_12L : 10.12.0.0/16" style="points=[[0,0],[0.25,0],[0.5,0],[0.75,0],[1,0],[1,0.25],[1,0.5],[1,0.75],[1,1],[0.75,1],[0.5,1],[0.25,1],[0,1],[0,0.75],[0,0.5],[0,0.25]];outlineConnect=0;gradientColor=none;html=1;whiteSpace=wrap;fontSize=12;fontStyle=0;container=1;pointerEvents=0;collapsible=0;recursiveResize=0;shape=mxgraph.aws4.group;grIcon=mxgraph.aws4.group_vpc;strokeColor=#248814;fillColor=none;verticalAlign=top;align=left;spacingLeft=30;fontColor=#AAB7B8;dashed=0;" vertex="1" parent="lWacp6Ve3q58CCviGvI0-3">
          <mxGeometry x="40" y="40" width="760" height="530" as="geometry" />
        </mxCell>
        <mxCell id="lWacp6Ve3q58CCviGvI0-5" value="Availability Zone" style="fillColor=none;strokeColor=#147EBA;dashed=1;verticalAlign=top;fontStyle=0;fontColor=#147EBA;" vertex="1" parent="lWacp6Ve3q58CCviGvI0-1">
          <mxGeometry x="40" y="-20" width="240" height="510" as="geometry" />
        </mxCell>
        <mxCell id="lWacp6Ve3q58CCviGvI0-4" value="Availability Zone" style="fillColor=none;strokeColor=#147EBA;dashed=1;verticalAlign=top;fontStyle=0;fontColor=#147EBA;" vertex="1" parent="lWacp6Ve3q58CCviGvI0-1">
          <mxGeometry x="480" y="-20" width="240" height="510" as="geometry" />
        </mxCell>
        <mxCell id="lWacp6Ve3q58CCviGvI0-9" value="Private subnet&lt;br&gt;10.12.1.0/24" style="points=[[0,0],[0.25,0],[0.5,0],[0.75,0],[1,0],[1,0.25],[1,0.5],[1,0.75],[1,1],[0.75,1],[0.5,1],[0.25,1],[0,1],[0,0.75],[0,0.5],[0,0.25]];outlineConnect=0;gradientColor=none;html=1;whiteSpace=wrap;fontSize=12;fontStyle=0;container=1;pointerEvents=0;collapsible=0;recursiveResize=0;shape=mxgraph.aws4.group;grIcon=mxgraph.aws4.group_security_group;grStroke=0;strokeColor=#147EBA;fillColor=#E6F2F8;verticalAlign=top;align=left;spacingLeft=30;fontColor=#147EBA;dashed=0;" vertex="1" parent="lWacp6Ve3q58CCviGvI0-1">
          <mxGeometry x="50" y="200" width="220" height="280" as="geometry" />
        </mxCell>
        <mxCell id="lWacp6Ve3q58CCviGvI0-19" value="" style="sketch=0;points=[[0,0,0],[0.25,0,0],[0.5,0,0],[0.75,0,0],[1,0,0],[0,1,0],[0.25,1,0],[0.5,1,0],[0.75,1,0],[1,1,0],[0,0.25,0],[0,0.5,0],[0,0.75,0],[1,0.25,0],[1,0.5,0],[1,0.75,0]];outlineConnect=0;fontColor=#232F3E;gradientColor=#4D72F3;gradientDirection=north;fillColor=#3334B9;strokeColor=#ffffff;dashed=0;verticalLabelPosition=bottom;verticalAlign=top;align=center;html=1;fontSize=12;fontStyle=0;aspect=fixed;shape=mxgraph.aws4.resourceIcon;resIcon=mxgraph.aws4.rds;" vertex="1" parent="lWacp6Ve3q58CCviGvI0-9">
          <mxGeometry x="66.5" y="183" width="57" height="57" as="geometry" />
        </mxCell>
        <mxCell id="lWacp6Ve3q58CCviGvI0-22" value="RDS_12L" style="text;html=1;align=center;verticalAlign=middle;resizable=0;points=[];autosize=1;strokeColor=none;fillColor=none;" vertex="1" parent="lWacp6Ve3q58CCviGvI0-9">
          <mxGeometry x="55" y="240" width="80" height="30" as="geometry" />
        </mxCell>
        <mxCell id="lWacp6Ve3q58CCviGvI0-8" value="Public subnet&lt;br&gt;10.12.1.0/24" style="points=[[0,0],[0.25,0],[0.5,0],[0.75,0],[1,0],[1,0.25],[1,0.5],[1,0.75],[1,1],[0.75,1],[0.5,1],[0.25,1],[0,1],[0,0.75],[0,0.5],[0,0.25]];outlineConnect=0;gradientColor=none;html=1;whiteSpace=wrap;fontSize=12;fontStyle=0;container=1;pointerEvents=0;collapsible=0;recursiveResize=0;shape=mxgraph.aws4.group;grIcon=mxgraph.aws4.group_security_group;grStroke=0;strokeColor=#248814;fillColor=#E9F3E6;verticalAlign=top;align=left;spacingLeft=30;fontColor=#248814;dashed=0;" vertex="1" parent="lWacp6Ve3q58CCviGvI0-1">
          <mxGeometry x="50" y="50" width="210" height="130" as="geometry" />
        </mxCell>
        <mxCell id="lWacp6Ve3q58CCviGvI0-7" value="Private subnet&lt;br&gt;10.12.3.0/24" style="points=[[0,0],[0.25,0],[0.5,0],[0.75,0],[1,0],[1,0.25],[1,0.5],[1,0.75],[1,1],[0.75,1],[0.5,1],[0.25,1],[0,1],[0,0.75],[0,0.5],[0,0.25]];outlineConnect=0;gradientColor=none;html=1;whiteSpace=wrap;fontSize=12;fontStyle=0;container=1;pointerEvents=0;collapsible=0;recursiveResize=0;shape=mxgraph.aws4.group;grIcon=mxgraph.aws4.group_security_group;grStroke=0;strokeColor=#147EBA;fillColor=#E6F2F8;verticalAlign=top;align=left;spacingLeft=30;fontColor=#147EBA;dashed=0;" vertex="1" parent="lWacp6Ve3q58CCviGvI0-1">
          <mxGeometry x="490" y="200" width="220" height="280" as="geometry" />
        </mxCell>
        <mxCell id="lWacp6Ve3q58CCviGvI0-21" value="" style="sketch=0;points=[[0,0,0],[0.25,0,0],[0.5,0,0],[0.75,0,0],[1,0,0],[0,1,0],[0.25,1,0],[0.5,1,0],[0.75,1,0],[1,1,0],[0,0.25,0],[0,0.5,0],[0,0.75,0],[1,0.25,0],[1,0.5,0],[1,0.75,0]];outlineConnect=0;fontColor=#232F3E;gradientColor=#4D72F3;gradientDirection=north;fillColor=#3334B9;strokeColor=#ffffff;dashed=0;verticalLabelPosition=bottom;verticalAlign=top;align=center;html=1;fontSize=12;fontStyle=0;aspect=fixed;shape=mxgraph.aws4.resourceIcon;resIcon=mxgraph.aws4.rds;" vertex="1" parent="lWacp6Ve3q58CCviGvI0-7">
          <mxGeometry x="81.5" y="183" width="57" height="57" as="geometry" />
        </mxCell>
        <mxCell id="lWacp6Ve3q58CCviGvI0-41" value="" style="endArrow=none;html=1;rounded=0;fontSize=10;exitX=1;exitY=0.5;exitDx=0;exitDy=0;exitPerimeter=0;entryX=0;entryY=0.5;entryDx=0;entryDy=0;entryPerimeter=0;" edge="1" parent="lWacp6Ve3q58CCviGvI0-7" target="lWacp6Ve3q58CCviGvI0-16">
          <mxGeometry width="50" height="50" relative="1" as="geometry">
            <mxPoint x="-98.25" y="44.5" as="sourcePoint" />
            <mxPoint x="95.75" y="1.5" as="targetPoint" />
          </mxGeometry>
        </mxCell>
        <mxCell id="lWacp6Ve3q58CCviGvI0-10" value="Public subnet&lt;br&gt;10.12.2.0/24" style="points=[[0,0],[0.25,0],[0.5,0],[0.75,0],[1,0],[1,0.25],[1,0.5],[1,0.75],[1,1],[0.75,1],[0.5,1],[0.25,1],[0,1],[0,0.75],[0,0.5],[0,0.25]];outlineConnect=0;gradientColor=none;html=1;whiteSpace=wrap;fontSize=12;fontStyle=0;container=1;pointerEvents=0;collapsible=0;recursiveResize=0;shape=mxgraph.aws4.group;grIcon=mxgraph.aws4.group_security_group;grStroke=0;strokeColor=#248814;fillColor=#E9F3E6;verticalAlign=top;align=left;spacingLeft=30;fontColor=#248814;dashed=0;" vertex="1" parent="lWacp6Ve3q58CCviGvI0-1">
          <mxGeometry x="490" y="50" width="220" height="130" as="geometry" />
        </mxCell>
        <mxCell id="lWacp6Ve3q58CCviGvI0-14" value="Auto Scaling group" style="points=[[0,0],[0.25,0],[0.5,0],[0.75,0],[1,0],[1,0.25],[1,0.5],[1,0.75],[1,1],[0.75,1],[0.5,1],[0.25,1],[0,1],[0,0.75],[0,0.5],[0,0.25]];outlineConnect=0;gradientColor=none;html=1;whiteSpace=wrap;fontSize=12;fontStyle=0;container=1;pointerEvents=0;collapsible=0;recursiveResize=0;shape=mxgraph.aws4.groupCenter;grIcon=mxgraph.aws4.group_auto_scaling_group;grStroke=1;strokeColor=#D86613;fillColor=none;verticalAlign=top;align=center;fontColor=#D86613;dashed=1;spacingTop=25;" vertex="1" parent="lWacp6Ve3q58CCviGvI0-1">
          <mxGeometry x="60" y="233" width="640" height="130" as="geometry" />
        </mxCell>
        <mxCell id="lWacp6Ve3q58CCviGvI0-15" value="" style="sketch=0;points=[[0,0,0],[0.25,0,0],[0.5,0,0],[0.75,0,0],[1,0,0],[0,1,0],[0.25,1,0],[0.5,1,0],[0.75,1,0],[1,1,0],[0,0.25,0],[0,0.5,0],[0,0.75,0],[1,0.25,0],[1,0.5,0],[1,0.75,0]];outlineConnect=0;fontColor=#232F3E;gradientColor=#F78E04;gradientDirection=north;fillColor=#D05C17;strokeColor=#ffffff;dashed=0;verticalLabelPosition=bottom;verticalAlign=top;align=center;html=1;fontSize=12;fontStyle=0;aspect=fixed;shape=mxgraph.aws4.resourceIcon;resIcon=mxgraph.aws4.compute;" vertex="1" parent="lWacp6Ve3q58CCviGvI0-14">
          <mxGeometry x="60" y="26" width="54" height="54" as="geometry" />
        </mxCell>
        <mxCell id="lWacp6Ve3q58CCviGvI0-16" value="" style="sketch=0;points=[[0,0,0],[0.25,0,0],[0.5,0,0],[0.75,0,0],[1,0,0],[0,1,0],[0.25,1,0],[0.5,1,0],[0.75,1,0],[1,1,0],[0,0.25,0],[0,0.5,0],[0,0.75,0],[1,0.25,0],[1,0.5,0],[1,0.75,0]];outlineConnect=0;fontColor=#232F3E;gradientColor=#F78E04;gradientDirection=north;fillColor=#D05C17;strokeColor=#ffffff;dashed=0;verticalLabelPosition=bottom;verticalAlign=top;align=center;html=1;fontSize=12;fontStyle=0;aspect=fixed;shape=mxgraph.aws4.resourceIcon;resIcon=mxgraph.aws4.compute;" vertex="1" parent="lWacp6Ve3q58CCviGvI0-14">
          <mxGeometry x="510" y="26" width="59" height="59" as="geometry" />
        </mxCell>
        <mxCell id="lWacp6Ve3q58CCviGvI0-17" value="EC2_1_12L" style="text;html=1;align=center;verticalAlign=middle;resizable=0;points=[];autosize=1;strokeColor=none;fillColor=none;" vertex="1" parent="lWacp6Ve3q58CCviGvI0-14">
          <mxGeometry x="40" y="85" width="90" height="30" as="geometry" />
        </mxCell>
        <mxCell id="lWacp6Ve3q58CCviGvI0-40" value="" style="endArrow=none;html=1;rounded=0;fontSize=10;exitX=1;exitY=0.5;exitDx=0;exitDy=0;exitPerimeter=0;" edge="1" parent="lWacp6Ve3q58CCviGvI0-14" source="lWacp6Ve3q58CCviGvI0-15">
          <mxGeometry width="50" height="50" relative="1" as="geometry">
            <mxPoint x="258" y="60" as="sourcePoint" />
            <mxPoint x="308" y="10" as="targetPoint" />
          </mxGeometry>
        </mxCell>
        <mxCell id="lWacp6Ve3q58CCviGvI0-18" value="EC2_1_12L" style="text;html=1;align=center;verticalAlign=middle;resizable=0;points=[];autosize=1;strokeColor=none;fillColor=none;" vertex="1" parent="lWacp6Ve3q58CCviGvI0-1">
          <mxGeometry x="555" y="325" width="90" height="30" as="geometry" />
        </mxCell>
        <mxCell id="lWacp6Ve3q58CCviGvI0-23" value="RDS_12L" style="text;html=1;align=center;verticalAlign=middle;resizable=0;points=[];autosize=1;strokeColor=none;fillColor=none;" vertex="1" parent="lWacp6Ve3q58CCviGvI0-1">
          <mxGeometry x="560" y="443" width="80" height="30" as="geometry" />
        </mxCell>
        <mxCell id="lWacp6Ve3q58CCviGvI0-28" value="" style="endArrow=none;dashed=1;html=1;dashPattern=1 3;strokeWidth=2;rounded=0;exitX=1;exitY=0.5;exitDx=0;exitDy=0;exitPerimeter=0;" edge="1" parent="lWacp6Ve3q58CCviGvI0-1" source="lWacp6Ve3q58CCviGvI0-19" target="lWacp6Ve3q58CCviGvI0-21">
          <mxGeometry width="50" height="50" relative="1" as="geometry">
            <mxPoint x="190" y="413" as="sourcePoint" />
            <mxPoint x="230" y="373" as="targetPoint" />
          </mxGeometry>
        </mxCell>
        <mxCell id="lWacp6Ve3q58CCviGvI0-38" style="edgeStyle=orthogonalEdgeStyle;rounded=0;orthogonalLoop=1;jettySize=auto;html=1;exitX=0.5;exitY=0;exitDx=0;exitDy=0;exitPerimeter=0;entryX=0.5;entryY=1;entryDx=0;entryDy=0;entryPerimeter=0;fontSize=10;" edge="1" parent="lWacp6Ve3q58CCviGvI0-1" source="lWacp6Ve3q58CCviGvI0-31" target="lWacp6Ve3q58CCviGvI0-32">
          <mxGeometry relative="1" as="geometry" />
        </mxCell>
        <mxCell id="lWacp6Ve3q58CCviGvI0-31" value="" style="sketch=0;points=[[0,0,0],[0.25,0,0],[0.5,0,0],[0.75,0,0],[1,0,0],[0,1,0],[0.25,1,0],[0.5,1,0],[0.75,1,0],[1,1,0],[0,0.25,0],[0,0.5,0],[0,0.75,0],[1,0.25,0],[1,0.5,0],[1,0.75,0]];points=[[0,0,0],[0.25,0,0],[0.5,0,0],[0.75,0,0],[1,0,0],[0,1,0],[0.25,1,0],[0.5,1,0],[0.75,1,0],[1,1,0],[0,0.25,0],[0,0.5,0],[0,0.75,0],[1,0.25,0],[1,0.5,0],[1,0.75,0]];outlineConnect=0;fontColor=#232F3E;gradientColor=#F34482;gradientDirection=north;fillColor=#BC1356;strokeColor=#ffffff;dashed=0;verticalLabelPosition=bottom;verticalAlign=top;align=center;html=1;fontSize=12;fontStyle=0;aspect=fixed;shape=mxgraph.aws4.resourceIcon;resIcon=mxgraph.aws4.cloudwatch_2;" vertex="1" parent="lWacp6Ve3q58CCviGvI0-1">
          <mxGeometry x="365" y="83" width="30" height="30" as="geometry" />
        </mxCell>
        <mxCell id="lWacp6Ve3q58CCviGvI0-32" value="" style="sketch=0;points=[[0,0,0],[0.25,0,0],[0.5,0,0],[0.75,0,0],[1,0,0],[0,1,0],[0.25,1,0],[0.5,1,0],[0.75,1,0],[1,1,0],[0,0.25,0],[0,0.5,0],[0,0.75,0],[1,0.25,0],[1,0.5,0],[1,0.75,0]];outlineConnect=0;fontColor=#232F3E;gradientColor=#FF4F8B;gradientDirection=north;fillColor=#BC1356;strokeColor=#ffffff;dashed=0;verticalLabelPosition=bottom;verticalAlign=top;align=center;html=1;fontSize=12;fontStyle=0;aspect=fixed;shape=mxgraph.aws4.resourceIcon;resIcon=mxgraph.aws4.sns;" vertex="1" parent="lWacp6Ve3q58CCviGvI0-1">
          <mxGeometry x="365" y="43" width="30" height="30" as="geometry" />
        </mxCell>
        <mxCell id="lWacp6Ve3q58CCviGvI0-36" value="&lt;font style=&quot;font-size: 10px;&quot;&gt;Application Load Balancer&lt;/font&gt;" style="text;html=1;align=center;verticalAlign=middle;resizable=0;points=[];autosize=1;strokeColor=none;fillColor=none;" vertex="1" parent="lWacp6Ve3q58CCviGvI0-1">
          <mxGeometry x="310" y="153" width="140" height="30" as="geometry" />
        </mxCell>
        <mxCell id="lWacp6Ve3q58CCviGvI0-37" style="edgeStyle=orthogonalEdgeStyle;rounded=0;orthogonalLoop=1;jettySize=auto;html=1;exitX=0.5;exitY=0;exitDx=0;exitDy=0;entryX=0.5;entryY=1;entryDx=0;entryDy=0;entryPerimeter=0;fontSize=10;" edge="1" parent="lWacp6Ve3q58CCviGvI0-1" source="lWacp6Ve3q58CCviGvI0-34" target="lWacp6Ve3q58CCviGvI0-31">
          <mxGeometry relative="1" as="geometry" />
        </mxCell>
        <mxCell id="lWacp6Ve3q58CCviGvI0-34" value="Security group&#xa;webgrpsec" style="fillColor=none;strokeColor=#DD3522;verticalAlign=top;fontStyle=0;fontColor=#DD3522;" vertex="1" parent="lWacp6Ve3q58CCviGvI0-1">
          <mxGeometry x="315" y="123" width="130" height="90" as="geometry" />
        </mxCell>
        <mxCell id="lWacp6Ve3q58CCviGvI0-30" value="" style="outlineConnect=0;dashed=0;verticalLabelPosition=bottom;verticalAlign=top;align=center;html=1;shape=mxgraph.aws3.application_load_balancer;fillColor=#F58534;gradientColor=none;" vertex="1" parent="lWacp6Ve3q58CCviGvI0-1">
          <mxGeometry x="365" y="183" width="30" height="30" as="geometry" />
        </mxCell>
        <mxCell id="lWacp6Ve3q58CCviGvI0-42" value="" style="endArrow=none;html=1;rounded=0;fontSize=10;exitX=0;exitY=0.5;exitDx=0;exitDy=0;exitPerimeter=0;entryX=0;entryY=0.5;entryDx=0;entryDy=0;entryPerimeter=0;" edge="1" parent="lWacp6Ve3q58CCviGvI0-1" source="lWacp6Ve3q58CCviGvI0-19" target="lWacp6Ve3q58CCviGvI0-15">
          <mxGeometry width="50" height="50" relative="1" as="geometry">
            <mxPoint x="70" y="333" as="sourcePoint" />
            <mxPoint x="120" y="293" as="targetPoint" />
            <Array as="points">
              <mxPoint x="90" y="353" />
            </Array>
          </mxGeometry>
        </mxCell>
        <mxCell id="lWacp6Ve3q58CCviGvI0-43" value="" style="endArrow=none;html=1;rounded=0;fontSize=10;entryX=0;entryY=0.75;entryDx=0;entryDy=0;entryPerimeter=0;exitX=1;exitY=0.25;exitDx=0;exitDy=0;exitPerimeter=0;" edge="1" parent="lWacp6Ve3q58CCviGvI0-1" source="lWacp6Ve3q58CCviGvI0-19" target="lWacp6Ve3q58CCviGvI0-16">
          <mxGeometry width="50" height="50" relative="1" as="geometry">
            <mxPoint x="176" y="400" as="sourcePoint" />
            <mxPoint x="226" y="350" as="targetPoint" />
          </mxGeometry>
        </mxCell>
        <mxCell id="lWacp6Ve3q58CCviGvI0-11" value="" style="sketch=0;outlineConnect=0;fontColor=#232F3E;gradientColor=none;fillColor=#4D27AA;strokeColor=none;dashed=0;verticalLabelPosition=bottom;verticalAlign=top;align=center;html=1;fontSize=12;fontStyle=0;aspect=fixed;pointerEvents=1;shape=mxgraph.aws4.internet_gateway;" vertex="1" parent="lWacp6Ve3q58CCviGvI0-3">
          <mxGeometry x="386.25" y="10" width="57.5" height="57.5" as="geometry" />
        </mxCell>
        <mxCell id="lWacp6Ve3q58CCviGvI0-39" style="edgeStyle=orthogonalEdgeStyle;rounded=0;orthogonalLoop=1;jettySize=auto;html=1;exitX=0.5;exitY=0;exitDx=0;exitDy=0;exitPerimeter=0;fontSize=10;" edge="1" parent="lWacp6Ve3q58CCviGvI0-3" source="lWacp6Ve3q58CCviGvI0-32" target="lWacp6Ve3q58CCviGvI0-11">
          <mxGeometry relative="1" as="geometry">
            <Array as="points">
              <mxPoint x="420" y="63" />
              <mxPoint x="420" y="63" />
            </Array>
          </mxGeometry>
        </mxCell>
        <mxCell id="-QjtrjUzRDEMRZ5MF8oH-47" value="Cloud Architecture" style="text;html=1;resizable=0;points=[];autosize=1;align=left;verticalAlign=top;spacingTop=-4;fontSize=30;fontStyle=1" parent="1" vertex="1">
          <mxGeometry x="11.5" y="50.5" width="290" height="40" as="geometry" />
        </mxCell>
        <mxCell id="-QjtrjUzRDEMRZ5MF8oH-48" value="Name : Manfred Lum Jun An&lt;br&gt;Admin Num : 214412L" style="text;html=1;resizable=0;points=[];autosize=1;align=left;verticalAlign=top;spacingTop=-4;fontSize=16" parent="1" vertex="1">
          <mxGeometry x="8" y="90.5" width="230" height="50" as="geometry" />
        </mxCell>
        <mxCell id="SCVMTBWpLvtzJIhz15lM-1" value="" style="line;strokeWidth=2;html=1;fontSize=14;" parent="1" vertex="1">
          <mxGeometry x="8" y="140.5" width="1060" height="10" as="geometry" />
        </mxCell>
        <mxCell id="lWacp6Ve3q58CCviGvI0-12" value="" style="sketch=0;outlineConnect=0;fontColor=#232F3E;gradientColor=none;fillColor=#232F3D;strokeColor=none;dashed=0;verticalLabelPosition=bottom;verticalAlign=top;align=center;html=1;fontSize=12;fontStyle=0;aspect=fixed;pointerEvents=1;shape=mxgraph.aws4.internet;" vertex="1" parent="1">
          <mxGeometry x="430" y="60.5" width="130" height="80" as="geometry" />
        </mxCell>
        <mxCell id="lWacp6Ve3q58CCviGvI0-13" value="" style="endArrow=none;html=1;rounded=0;" edge="1" parent="1" source="lWacp6Ve3q58CCviGvI0-11" target="lWacp6Ve3q58CCviGvI0-12">
          <mxGeometry width="50" height="50" relative="1" as="geometry">
            <mxPoint x="490" y="220" as="sourcePoint" />
            <mxPoint x="490" y="190" as="targetPoint" />
          </mxGeometry>
        </mxCell>
      </root>
    </mxGraphModel>
  </diagram>
</mxfile>
